<?xml version="1.0" standalone="no"?>
<!DOCTYPE svg PUBLIC "-//W3C//DTD SVG 20010904//EN"
 "http://www.w3.org/TR/2001/REC-SVG-20010904/DTD/svg10.dtd">
<svg version="1.0" xmlns="http://www.w3.org/2000/svg"
 width="512.000000pt" height="512.000000pt" viewBox="0 0 512.000000 512.000000"
 preserveAspectRatio="xMidYMid meet">
<metadata>
Created by potrace 1.11, written by Peter Selinger 2001-2013
</metadata>
<g transform="translate(0.000000,512.000000) scale(0.100000,-0.100000)"
fill="#000000" stroke="none">
<path d="M2250 5109 c-487 -46 -950 -234 -1325 -536 -528 -425 -851 -1032
-915 -1718 -13 -141 -13 -449 0 -590 47 -503 230 -959 537 -1340 425 -528
1032 -851 1718 -915 141 -13 449 -13 590 0 503 47 959 230 1340 537 528 425
851 1032 915 1718 13 141 13 449 0 590 -47 503 -230 959 -537 1340 -425 528
-1032 851 -1718 915 -126 11 -479 11 -605 -1z m405 -199 c321 -30 598 -107
880 -245 648 -316 1130 -909 1305 -1604 60 -238 84 -446 69 -604 -46 -493
-231 -953 -536 -1332 -336 -417 -801 -717 -1312 -845 -238 -60 -446 -84 -603
-69 -494 46 -954 231 -1333 536 -417 336 -717 801 -845 1312 -60 238 -84 446
-69 604 46 493 231 953 536 1332 336 417 801 716 1312 845 133 33 269 57 391
69 47 5 87 9 90 10 3 0 55 -4 115 -9z"/>
<path d="M3679 3746 c-2 -3 -31 -8 -64 -11 -81 -10 -212 -49 -301 -89 -237
-110 -410 -312 -498 -581 -27 -85 -29 -94 -50 -220 -20 -117 -17 -385 6 -519
64 -381 266 -651 579 -774 84 -33 143 -48 269 -69 58 -10 331 -9 390 1 157 26
310 74 464 146 l83 40 0 170 c0 93 -4 170 -8 170 -4 0 -49 -32 -101 -70 -193
-146 -386 -213 -618 -214 -169 -1 -237 11 -352 63 -176 79 -300 227 -372 443
-42 125 -51 194 -50 383 1 176 7 230 41 345 89 299 283 483 560 529 58 10 271
7 328 -4 82 -16 186 -49 254 -82 73 -35 235 -138 275 -175 41 -38 44 -27 43
156 l-1 175 -80 37 c-145 66 -293 113 -436 139 -41 7 -355 17 -361 11z"/>
<path d="M1299 3716 c-2 -2 -26 -6 -54 -9 -174 -18 -364 -107 -484 -227 -107
-107 -152 -213 -157 -370 -10 -278 120 -467 389 -570 68 -26 245 -70 347 -85
14 -2 39 -6 55 -9 373 -57 517 -126 556 -264 22 -77 16 -179 -13 -244 -32 -70
-59 -100 -132 -149 -101 -67 -211 -93 -401 -94 -131 0 -180 6 -299 36 -108 28
-307 105 -326 128 -3 3 -16 12 -30 19 -14 7 -53 33 -85 58 -33 24 -64 43 -69
41 -5 -2 -10 -80 -10 -181 l-1 -178 26 -14 c15 -7 46 -20 70 -29 24 -9 69 -25
99 -36 76 -28 234 -67 300 -75 30 -3 59 -9 64 -12 21 -12 384 -10 464 3 202
33 392 129 506 256 57 64 122 193 140 279 18 88 12 229 -13 310 -21 67 -60
137 -102 181 -96 101 -293 188 -509 224 -19 3 -51 10 -70 15 -19 4 -53 11 -75
14 -22 3 -50 7 -61 10 -12 2 -38 7 -58 10 -341 54 -459 145 -460 356 0 69 4
94 23 132 48 99 171 181 316 211 116 24 307 17 467 -17 110 -24 310 -114 395
-177 29 -21 57 -39 63 -39 6 0 10 60 10 174 l0 173 -82 31 c-213 80 -428 119
-669 120 -70 1 -128 -1 -130 -2z"/>
</g>
</svg>
